<?xml version="1.0" encoding="UTF-8"?>
<!DOCTYPE svg PUBLIC "-//W3C//DTD SVG 1.1//EN" "http://www.w3.org/Graphics/SVG/1.1/DTD/svg11.dtd">
<!-- Creator: CorelDRAW 2020 (64-Bit) -->
<svg xmlns="http://www.w3.org/2000/svg" xml:space="preserve" width="297mm" height="210mm" version="1.1" style="shape-rendering:geometricPrecision; text-rendering:geometricPrecision; image-rendering:optimizeQuality; fill-rule:evenodd; clip-rule:evenodd"
viewBox="0 0 29700 21000"
 xmlns:xlink="http://www.w3.org/1999/xlink"
 xmlns:xodm="http://www.corel.com/coreldraw/odm/2003">
 <defs>
  <style type="text/css">
   <![CDATA[
    .fil0 {fill:black;fill-rule:nonzero}
   ]]>
  </style>
 </defs>
 <g id="Слой_x0020_1">
  <metadata id="CorelCorpID_0Corel-Layer"/>
  <g id="_2492559362256">
   <path class="fil0" d="M24055.74 7628.05c59.88,34.21 290.81,186.04 513.2,340 1210.29,836.08 1774.8,1141.85 3121.94,1691.4 545.27,220.25 675.71,284.4 716.34,342.13 17.11,23.52 55.6,49.18 87.67,55.59 89.81,23.53 113.33,66.29 66.29,119.75 -57.73,64.15 -177.48,121.88 -816.84,384.9 -1278.71,530.3 -2084.85,979.35 -3254.51,1813.29 -470.43,335.72 -643.64,421.25 -675.71,333.58 -17.11,-42.77 23.52,-156.1 106.91,-295.09l70.57 -117.61 -74.84 32.08c-72.7,29.94 -79.12,29.94 -115.47,-14.96 -55.59,-68.43 -49.18,-139 68.43,-727.03 138.99,-697.09 215.97,-1282.99 171.06,-1282.99 -10.69,0 -115.47,14.97 -230.94,32.08 -928.03,136.85 -3198.92,213.83 -7980.19,267.29 -4742.78,53.45 -7353.67,68.42 -9226.83,57.73 -2974.4,-21.38 -4005.07,-70.57 -4896.74,-241.63 -327.16,-62.01 -429.8,-91.95 -461.88,-128.3 -34.21,-42.77 91.95,-68.43 536.72,-104.78 555.96,-47.04 1330.03,-68.43 3538.91,-106.91 6928.14,-115.47 14656.01,-168.93 17256.21,-119.75 729.16,12.83 1362.1,29.93 1404.87,38.49l81.26 12.83 0 -297.23c0,-325.02 -19.25,-581.62 -87.67,-1120.48 -25.66,-194.58 -47.05,-444.77 -49.19,-555.96 -4.28,-136.85 -17.1,-224.52 -40.63,-269.42 -17.1,-36.35 -36.35,-94.09 -40.62,-128.31 -6.42,-53.45 2.13,-62.01 47.04,-68.42 29.93,-2.14 102.63,23.52 164.65,57.73l-0.01 0zm540.99 1122.62c299.37,774.07 333.58,1667.89 94.09,2418.44 -29.94,94.08 -100.51,271.57 -158.24,391.31l-106.92 222.38 175.34 -164.65c748.41,-703.5 1873.17,-1287.26 2871.76,-1488.26l128.31 -25.66 -239.5 -49.18c-478.98,-96.23 -940.85,-260.88 -1439.08,-513.2 -476.84,-241.63 -851.05,-489.67 -1229.53,-818.98 -83.39,-72.7 -151.82,-130.43 -153.96,-130.43 -2.14,0 25.66,70.57 57.74,158.24l-0.01 -0.01z"/>
  </g>
 </g>
</svg>
