<?xml version="1.0" encoding="UTF-8"?>
<!DOCTYPE svg PUBLIC "-//W3C//DTD SVG 1.1//EN" "http://www.w3.org/Graphics/SVG/1.1/DTD/svg11.dtd">
<!-- Creator: CorelDRAW 2020 (64-Bit) -->
<svg xmlns="http://www.w3.org/2000/svg" xml:space="preserve" width="297mm" height="210mm" version="1.1" style="shape-rendering:geometricPrecision; text-rendering:geometricPrecision; image-rendering:optimizeQuality; fill-rule:evenodd; clip-rule:evenodd"
viewBox="0 0 29700 21000"
 xmlns:xlink="http://www.w3.org/1999/xlink"
 xmlns:xodm="http://www.corel.com/coreldraw/odm/2003">
 <defs>
  <style type="text/css">
   <![CDATA[
    .fil0 {fill:black;fill-rule:nonzero}
   ]]>
  </style>
 </defs>
 <g id="Слой_x0020_1">
  <metadata id="CorelCorpID_0Corel-Layer"/>
  <g id="_2492750992144">
   <path class="fil0" d="M19590.39 18466.7c66.53,18.15 337.18,74.09 603.3,122.48 1447,264.6 2062.39,447.56 3403.55,1011.54 541.3,229.82 678.9,276.7 748.45,264.61 28.73,-4.54 74.09,4.53 101.3,22.68 80.14,46.87 127.01,33.26 131.55,-37.81 4.54,-86.18 -39.31,-211.68 -305.43,-849.75 -529.2,-1279.17 -781.71,-2166.72 -1019.09,-3583.48 -95.26,-570.03 -157.26,-752.99 -241.93,-713.67 -42.34,18.14 -93.74,127.01 -133.06,284.25l-33.26 133.06 -30.24 -75.6c-30.24,-72.57 -34.77,-77.11 -92.23,-71.06 -87.7,9.07 -133.06,63.5 -465.7,562.46 -394.63,591.21 -754.49,1059.93 -786.25,1028.18 -7.56,-7.56 -71.07,-92.23 -140.61,-185.98 -559.45,-752.99 -2110.78,-2413.19 -5453.85,-5831.85 -3315.86,-3391.46 -5151.45,-5248.22 -6483.53,-6565.18 -2118.34,-2088.1 -2881.91,-2782.11 -3633.38,-3291.66 -275.19,-187.49 -368.93,-238.9 -417.32,-235.88 -54.43,6.06 16.63,113.4 305.43,453.61 359.86,426.39 892.09,988.86 2426.78,2577.99 4817.29,4980.58 10243.92,10482.81 12117.31,12286.65 524.67,506.53 984.32,941.99 1020.61,966.18l66.53 48.39 -210.17 210.17c-229.82,229.82 -424.87,397.66 -854.29,730.3 -155.74,119.45 -347.76,281.24 -427.9,358.35 -99.79,93.74 -170.86,146.67 -219.24,161.78 -37.8,13.61 -92.23,40.83 -119.45,62 -42.34,33.26 -42.34,45.36 -15.12,81.65 19.65,22.68 89.2,55.94 157.25,75.6l-0.01 -0.01zm1176.35 -411.27c759.04,-335.67 1415.25,-943.5 1776.62,-1643.57 45.36,-87.69 120.96,-263.09 164.81,-388.59l81.65 -232.85 7.56 240.41c31.75,1026.66 414.29,2234.76 978.28,3083.01l72.58 108.86 -204.13 -134.57c-406.73,-270.65 -849.75,-480.82 -1380.47,-654.7 -508.03,-166.31 -948.03,-255.53 -1448.51,-290.3 -110.37,-7.56 -199.58,-15.12 -201.1,-16.64 -1.51,-1.51 68.04,-31.75 152.72,-71.06l-0.01 0z"/>
  </g>
 </g>
</svg>
